<svg xmlns="http://www.w3.org/2000/svg"><symbol id="mecha-stilts" viewBox="0 0 256 256"><path d="M96.3 157.7h20.9v13.19H96.3zm25 0h13.4v13.19h-13.4zm17.5 0h20.9v13.19h-20.9zM128 70.4c-24.4 0-44.9 14.9-45.9 41.9h91.8c-1.1-27-21.5-41.9-45.9-41.9zm-49.2 87.3h13.4v13.19H78.8zm-12.6-4.2h123.5v-37H66.2zm60.8-14.2h50.9a2.1 2.1 0 0 1 0 4.2H127a2.1 2.1 0 1 1 0-4.2z"/><path d="M128 .5L18 64.2v127.5l110 63.8 110-63.8V64.2zm65.9 155.1a1.9 1.9 0 0 1-2.1 2.1h-10.4v13.2h10.4a2.3 2.3 0 0 1 2.1 2.1 2.2 2.2 0 0 1-2.1 2.1H64.2a2.2 2.2 0 0 1-2.1-2.1 2.3 2.3 0 0 1 2.1-2.1h10.4v-13.2H64.2a1.9 1.9 0 0 1-2.1-2.1v-41.2a1.9 1.9 0 0 1 2.1-2.1h13.7C79 82.6 101.1 66.2 128 66.2s49 16.4 50.1 46.1h13.7a1.9 1.9 0 0 1 2.1 2.1z"/><path d="M163.9 157.7h13.4v13.19h-13.4z"/></symbol><symbol id="space-bubbles" viewBox="0 0 256 256"><path d="M97.5 149.8H83.8l-18.4 21.8 2.9 4.1 35.3-18.6-6.1-7.3zm-25.4-15.1h114.1v10.89H72.1zm99.7-4.2a49.9 49.9 0 0 0 2.5-15.9 45.2 45.2 0 1 0-90.3 0c0 5.4.4 11.1 2.5 15.9zm-85.1 40.4h28.4l-8.6-10.4-19.8 10.4zm71.8-21.1l-6.3 7.3 35.5 18.6 2.9-3.9-18.4-22h-13.7z"/><path d="M128 .5L18 64.2v127.6l110 63.7 110-63.7V64.2zm66.8 172.3l-4.8 6.9a2.2 2.2 0 0 1-2.8.6l-10-5.2H78.6l-10.1 5.2a2.1 2.1 0 0 1-2.7-.6l-4.8-6.9a2.3 2.3 0 0 1 .2-2.5l17.4-20.5H70a2.1 2.1 0 0 1-2.1-2.1v-15.1a2 2 0 0 1 2.1-2.1h12.1a57.1 57.1 0 0 1-2.3-15.9 49.6 49.6 0 0 1 49.4-49.4c27 0 49.3 22.4 49.3 49.4a50.6 50.6 0 0 1-2.3 15.9h12.1a2 2 0 0 1 2.1 2.1v15.1a2.1 2.1 0 0 1-2.1 2.1h-10.7l17.2 20.5a2.3 2.3 0 0 1 0 2.5z"/><path d="M140.9 170.9h28.4l-19.8-10.4-8.6 10.4zM103 149.8l17.5 21.1h15l17.5-21.1h-50z"/></symbol><symbol id="super-domes" viewBox="0 0 256 256"><path d="M69.8 147.7h56.1v23.24H69.8zm56.1-19.9V85.5l-30 42.3h30zm4.2-46.7v46.7h57.6a62.1 62.1 0 0 0-57.6-46.7zm0 66.6h9.4v23.24h-9.4zm-6.3-66.4c-26.7 1.7-49 21.1-55.5 46.5h22.4z"/><path d="M128 .5L18 64.3v127.5l110 63.7 110-63.7V64.3zm89.9 147.2h-27.5V173a2 2 0 0 1-2.1 2.1H67.7a2 2 0 0 1-2.1-2.1v-25.3H38.1a2.3 2.3 0 0 1-2.1-2.1 2.2 2.2 0 0 1 2.1-2.1h15.6v-13.6a2 2 0 0 1 2.1-2.1H64a66.1 66.1 0 0 1 63.8-50.9c.2-.2.4-.2.8 0 30.9.2 56.6 22 63.4 50.9h8.2a2 2 0 0 1 2.1 2.1v13.6h15.6a2.3 2.3 0 0 1 2.1 2.1 2.3 2.3 0 0 1-2.1 2.1z"/><path d="M57.9 132h140.2v11.52H57.9zm85.7 15.7h42.6v23.24h-42.6z"/></symbol></svg>