<svg xmlns="http://www.w3.org/2000/svg" width="256" height="256" viewBox="0 0 256 256"><path d="M96.3 157.7h20.9v13.19H96.3zm25 0h13.4v13.19h-13.4zm17.5 0h20.9v13.19h-20.9zM128 70.4c-24.4 0-44.9 14.9-45.9 41.9h91.8c-1.1-27-21.5-41.9-45.9-41.9zm-49.2 87.3h13.4v13.19H78.8zm-12.6-4.2h123.5v-37H66.2zm60.8-14.2h50.9a2.1 2.1 0 0 1 0 4.2H127a2.1 2.1 0 1 1 0-4.2z"/><path d="M128 .5L18 64.2v127.5l110 63.8 110-63.8V64.2zm65.9 155.1a1.9 1.9 0 0 1-2.1 2.1h-10.4v13.2h10.4a2.3 2.3 0 0 1 2.1 2.1 2.2 2.2 0 0 1-2.1 2.1H64.2a2.2 2.2 0 0 1-2.1-2.1 2.3 2.3 0 0 1 2.1-2.1h10.4v-13.2H64.2a1.9 1.9 0 0 1-2.1-2.1v-41.2a1.9 1.9 0 0 1 2.1-2.1h13.7C79 82.6 101.1 66.2 128 66.2s49 16.4 50.1 46.1h13.7a1.9 1.9 0 0 1 2.1 2.1z"/><path d="M163.9 157.7h13.4v13.19h-13.4z"/></svg>