<svg xmlns="http://www.w3.org/2000/svg" width="256" height="256" viewBox="0 0 256 256"><path d="M97.5 149.8H83.8l-18.4 21.8 2.9 4.1 35.3-18.6-6.1-7.3zm-25.4-15.1h114.1v10.89H72.1zm99.7-4.2a49.9 49.9 0 0 0 2.5-15.9 45.2 45.2 0 1 0-90.3 0c0 5.4.4 11.1 2.5 15.9zm-85.1 40.4h28.4l-8.6-10.4-19.8 10.4zm71.8-21.1l-6.3 7.3 35.5 18.6 2.9-3.9-18.4-22h-13.7z"/><path d="M128 .5L18 64.2v127.6l110 63.7 110-63.7V64.2zm66.8 172.3l-4.8 6.9a2.2 2.2 0 0 1-2.8.6l-10-5.2H78.6l-10.1 5.2a2.1 2.1 0 0 1-2.7-.6l-4.8-6.9a2.3 2.3 0 0 1 .2-2.5l17.4-20.5H70a2.1 2.1 0 0 1-2.1-2.1v-15.1a2 2 0 0 1 2.1-2.1h12.1a57.1 57.1 0 0 1-2.3-15.9 49.6 49.6 0 0 1 49.4-49.4c27 0 49.3 22.4 49.3 49.4a50.6 50.6 0 0 1-2.3 15.9h12.1a2 2 0 0 1 2.1 2.1v15.1a2.1 2.1 0 0 1-2.1 2.1h-10.7l17.2 20.5a2.3 2.3 0 0 1 0 2.5z"/><path d="M140.9 170.9h28.4l-19.8-10.4-8.6 10.4zM103 149.8l17.5 21.1h15l17.5-21.1h-50z"/></svg>