<svg xmlns="http://www.w3.org/2000/svg"><symbol id="mecha-stilts" viewBox="0 0 256 256"><path d="M128 .5l110 63.8v127.5l-110 63.7-110-63.7V64.3L128 .5z"/><path fill="#fff" d="M64.2 175.1a2.2 2.2 0 0 1-2.1-2.1 2.3 2.3 0 0 1 2.1-2.1h10.4v-13.2H64.2a1.9 1.9 0 0 1-2.1-2.1v-41.2a1.9 1.9 0 0 1 2.1-2.1h13.7C79 82.6 101.1 66.2 128 66.2s49 16.4 50.1 46.1h13.7a1.9 1.9 0 0 1 2.1 2.1v41.2a1.9 1.9 0 0 1-2.1 2.1h-10.4v13.2h10.4a2.3 2.3 0 0 1 2.1 2.1 2.2 2.2 0 0 1-2.1 2.1zm2-58.6v37h123.5v-37zm12.6 41.2v13.2h13.3v-13.2zm3.3-45.4h91.8c-1.1-27-21.5-41.9-45.9-41.9s-44.9 14.9-45.9 41.9zm14.2 45.4v13.2h20.8v-13.2zm25 0v13.2h13.4v-13.2zm56.6-14.2H127a2.1 2.1 0 1 1 0-4.2h50.9a2.1 2.1 0 0 1 0 4.2zm-39.1 14.2v13.2h20.9v-13.2zm25.1 0v13.2h13.3v-13.2z"/></symbol><symbol id="super-domes" viewBox="0 0 256 256"><path d="M128 .5l110 63.8v127.5l-110 63.7-110-63.7V64.3L128 .5z"/><path fill="#fff" d="M67.7 175.1a2 2 0 0 1-2.1-2.1v-25.3H38.1a2.3 2.3 0 0 1-2.1-2.1 2.2 2.2 0 0 1 2.1-2.1h15.6v-13.6a2 2 0 0 1 2.1-2.1H64a66.1 66.1 0 0 1 63.8-50.9c.2-.2.4-.2.8 0 30.9.2 56.6 22 63.4 50.9h8.2a2 2 0 0 1 2.1 2.1v13.6h15.6a2.3 2.3 0 0 1 2.1 2.1 2.3 2.3 0 0 1-2.1 2.1h-27.5V173a2 2 0 0 1-2.1 2.1zM57.9 132v11.5h140.2V132zm65.9-50.7c-26.7 1.7-49 21.1-55.5 46.5h22.4zm-54 66.4v23.2h56.1v-23.2zm56.1-62.2l-30 42.3h30zm4.2-4.4v46.7h57.6a62.1 62.1 0 0 0-57.6-46.7zm0 66.6v23.2h9.4v-23.2zm13.5 0v23.2h42.6v-23.2z"/></symbol><symbol id="space-bubbles" viewBox="0 0 256 256"><path d="M128 .5l110 63.8v127.5l-110 63.7-110-63.7V64.3L128 .5z"/><path fill="#fff" d="M65.8 179.7l-4.8-6.9a2.3 2.3 0 0 1 .2-2.5l17.4-20.5H70a2.1 2.1 0 0 1-2.1-2.1v-15.1a2 2 0 0 1 2.1-2.1h12.1a57.1 57.1 0 0 1-2.3-15.9 49.6 49.6 0 0 1 49.4-49.4c27 0 49.3 22.4 49.3 49.4a50.6 50.6 0 0 1-2.3 15.9h12.1a2 2 0 0 1 2.1 2.1v15.1a2.1 2.1 0 0 1-2.1 2.1h-10.7l17.2 20.5a2.3 2.3 0 0 1 0 2.5l-4.8 6.9a2.2 2.2 0 0 1-2.8.6l-10-5.2H78.6l-10.1 5.2a2.1 2.1 0 0 1-2.7-.6zm31.7-29.9H83.8l-18.4 21.8 2.9 4.1 35.3-18.6zm-25.4-15.1v10.9h114.1v-10.9zm14.4-4.2h85.3a49.9 49.9 0 0 0 2.5-15.9 45.2 45.2 0 1 0-90.3 0c0 5.4.4 11.1 2.5 15.9zm20 30l-19.8 10.4h28.4zm-3.5-10.7l17.5 21.1h15l17.5-21.1zm46.5 10.7l-8.6 10.4h28.4zm22.7-10.7h-13.7l-6.3 7.3 35.5 18.6 2.9-3.9z"/></symbol></svg>