<svg xmlns="http://www.w3.org/2000/svg" width="256" height="256" viewBox="0 0 256 256"><path d="M69.8 147.7h56.1v23.24H69.8zm56.1-19.9V85.5l-30 42.3h30zm4.2-46.7v46.7h57.6a62.1 62.1 0 0 0-57.6-46.7zm0 66.6h9.4v23.24h-9.4zm-6.3-66.4c-26.7 1.7-49 21.1-55.5 46.5h22.4z"/><path d="M128 .5L18 64.3v127.5l110 63.7 110-63.7V64.3zm89.9 147.2h-27.5V173a2 2 0 0 1-2.1 2.1H67.7a2 2 0 0 1-2.1-2.1v-25.3H38.1a2.3 2.3 0 0 1-2.1-2.1 2.2 2.2 0 0 1 2.1-2.1h15.6v-13.6a2 2 0 0 1 2.1-2.1H64a66.1 66.1 0 0 1 63.8-50.9c.2-.2.4-.2.8 0 30.9.2 56.6 22 63.4 50.9h8.2a2 2 0 0 1 2.1 2.1v13.6h15.6a2.3 2.3 0 0 1 2.1 2.1 2.3 2.3 0 0 1-2.1 2.1z"/><path d="M57.9 132h140.2v11.52H57.9zm85.7 15.7h42.6v23.24h-42.6z"/></svg>